<svg xmlns="http://www.w3.org/2000/svg" xmlns:xlink="http://www.w3.org/1999/xlink" width="829" zoomAndPan="magnify" viewBox="0 0 621.75 236.249991" height="315" preserveAspectRatio="xMidYMid meet" version="1.0"><defs><g/><clipPath id="c216e2da66"><path d="M 1.007812 0.0976562 L 269.402344 0.0976562 L 269.402344 235.503906 L 1.007812 235.503906 Z M 1.007812 0.0976562 " clip-rule="nonzero"/></clipPath></defs><g fill="#000000" fill-opacity="1"><g transform="translate(272.754661, 150.406509)"><g><path d="M 16.53125 0 L 6.3125 0 L 6.3125 -50.4375 L 16.421875 -50.4375 Z M 11.375 -61.390625 C 9.550781 -61.390625 8.003906 -62.035156 6.734375 -63.328125 C 5.472656 -64.628906 4.84375 -66.191406 4.84375 -68.015625 C 4.84375 -69.847656 5.472656 -71.394531 6.734375 -72.65625 C 8.003906 -73.914062 9.550781 -74.546875 11.375 -74.546875 C 13.195312 -74.546875 14.738281 -73.914062 16 -72.65625 C 17.269531 -71.394531 17.90625 -69.847656 17.90625 -68.015625 C 17.90625 -66.191406 17.269531 -64.628906 16 -63.328125 C 14.738281 -62.035156 13.195312 -61.390625 11.375 -61.390625 Z M 11.375 -61.390625 "/></g></g></g><g fill="#000000" fill-opacity="1"><g transform="translate(294.864467, 150.406509)"><g><path d="M 15.90625 0 L 5.6875 0 L 5.6875 -50.4375 L 13.796875 -50.4375 L 15.90625 -46.015625 C 17.582031 -47.628906 19.613281 -48.960938 22 -50.015625 C 24.394531 -51.066406 26.992188 -51.59375 29.796875 -51.59375 C 31.617188 -51.59375 33.6875 -51.3125 36 -50.75 C 38.320312 -50.1875 40.484375 -49.132812 42.484375 -47.59375 C 44.484375 -46.050781 46.164062 -43.910156 47.53125 -41.171875 C 48.90625 -38.429688 49.59375 -34.882812 49.59375 -30.53125 L 49.59375 0 L 39.90625 0 L 39.90625 -30.640625 C 39.90625 -32.816406 39.570312 -34.660156 38.90625 -36.171875 C 38.238281 -37.679688 37.359375 -38.890625 36.265625 -39.796875 C 35.179688 -40.710938 33.953125 -41.363281 32.578125 -41.75 C 31.210938 -42.132812 29.796875 -42.328125 28.328125 -42.328125 C 27.203125 -42.328125 25.921875 -42.113281 24.484375 -41.6875 C 23.046875 -41.269531 21.691406 -40.585938 20.421875 -39.640625 C 19.160156 -38.691406 18.09375 -37.5 17.21875 -36.0625 C 16.34375 -34.625 15.90625 -32.851562 15.90625 -30.75 Z M 15.90625 0 "/></g></g></g><g fill="#000000" fill-opacity="1"><g transform="translate(351.08656, 150.406509)"><g><path d="M 29.796875 1.265625 C 26.148438 1.265625 22.726562 0.582031 19.53125 -0.78125 C 16.332031 -2.15625 13.539062 -4.035156 11.15625 -6.421875 C 8.769531 -8.804688 6.890625 -11.613281 5.515625 -14.84375 C 4.148438 -18.070312 3.46875 -21.515625 3.46875 -25.171875 C 3.46875 -28.816406 4.117188 -32.253906 5.421875 -35.484375 C 6.722656 -38.710938 8.476562 -41.519531 10.6875 -43.90625 C 12.894531 -46.289062 15.472656 -48.164062 18.421875 -49.53125 C 21.367188 -50.90625 24.53125 -51.59375 27.90625 -51.59375 C 31.34375 -51.59375 34.515625 -50.992188 37.421875 -49.796875 C 40.335938 -48.609375 42.863281 -46.75 45 -44.21875 C 47.144531 -41.695312 48.816406 -38.488281 50.015625 -34.59375 C 51.210938 -30.695312 51.8125 -26.046875 51.8125 -20.640625 L 14.328125 -20.640625 C 14.816406 -18.816406 15.585938 -17.113281 16.640625 -15.53125 C 17.691406 -13.945312 18.9375 -12.578125 20.375 -11.421875 C 21.8125 -10.265625 23.425781 -9.367188 25.21875 -8.734375 C 27.007812 -8.109375 28.890625 -7.796875 30.859375 -7.796875 C 33.523438 -7.796875 36 -8.285156 38.28125 -9.265625 C 40.5625 -10.242188 42.507812 -11.539062 44.125 -13.15625 L 50.4375 -6.84375 C 47.976562 -4.382812 44.972656 -2.414062 41.421875 -0.9375 C 37.878906 0.53125 34.003906 1.265625 29.796875 1.265625 Z M 27.90625 -42.328125 C 26.289062 -42.328125 24.765625 -42.007812 23.328125 -41.375 C 21.890625 -40.75 20.554688 -39.875 19.328125 -38.75 C 18.097656 -37.625 17.039062 -36.289062 16.15625 -34.75 C 15.28125 -33.207031 14.632812 -31.519531 14.21875 -29.6875 L 40.859375 -29.6875 C 40.710938 -31.375 40.320312 -32.988281 39.6875 -34.53125 C 39.0625 -36.082031 38.1875 -37.4375 37.0625 -38.59375 C 35.9375 -39.75 34.617188 -40.660156 33.109375 -41.328125 C 31.609375 -41.992188 29.875 -42.328125 27.90625 -42.328125 Z M 27.90625 -42.328125 "/></g></g></g><path fill="#ff0808" d="M 454.824219 77.972656 C 443.421875 77.972656 433.054688 82.640625 425.535156 90.15625 C 418.019531 97.671875 413.355469 108.039062 413.355469 119.441406 C 413.355469 130.84375 418.019531 141.210938 425.535156 148.730469 C 433.054688 156.246094 443.417969 160.910156 454.824219 160.910156 C 466.222656 160.910156 476.59375 156.242188 484.105469 148.730469 C 491.625 141.210938 496.289062 130.847656 496.289062 119.441406 C 496.289062 108.042969 491.621094 97.671875 484.105469 90.15625 C 476.59375 82.636719 466.226562 77.972656 454.824219 77.972656 Z M 460.570312 141.792969 C 459.003906 144.511719 457.640625 146.875 456.714844 148.609375 C 456.160156 149.652344 454.859375 150.050781 453.816406 149.488281 C 453.421875 149.277344 453.121094 148.964844 452.925781 148.597656 C 451.996094 146.855469 450.628906 144.484375 449.0625 141.765625 C 443.144531 131.503906 434.421875 116.378906 434.421875 109.53125 C 434.421875 103.902344 436.707031 98.804688 440.40625 95.105469 C 444.097656 91.414062 449.199219 89.128906 454.824219 89.128906 C 460.453125 89.128906 465.546875 91.414062 469.25 95.113281 C 472.941406 98.804688 475.226562 103.902344 475.226562 109.527344 C 475.222656 116.363281 466.480469 131.535156 460.570312 141.792969 Z M 460.570312 141.792969 " fill-opacity="1" fill-rule="evenodd"/><path fill="#ff0808" d="M 466.207031 98.148438 C 463.296875 95.242188 459.273438 93.441406 454.824219 93.441406 C 450.375 93.441406 446.351562 95.242188 443.4375 98.148438 C 440.53125 101.058594 438.730469 105.085938 438.730469 109.53125 C 438.730469 115.269531 447.101562 129.78125 452.78125 139.625 L 452.796875 139.65625 C 453.695312 141.222656 455.957031 141.222656 456.851562 139.65625 C 462.527344 129.8125 470.917969 115.246094 470.917969 109.53125 C 470.917969 105.085938 469.113281 101.058594 466.207031 98.148438 Z M 461.226562 115.324219 C 459.585938 116.960938 457.320312 117.976562 454.824219 117.976562 C 452.324219 117.976562 450.058594 116.960938 448.421875 115.324219 C 446.78125 113.6875 445.765625 111.421875 445.765625 108.921875 C 445.765625 106.429688 446.785156 104.167969 448.425781 102.527344 C 450.058594 100.886719 452.324219 99.871094 454.824219 99.871094 C 457.320312 99.871094 459.585938 100.886719 461.226562 102.523438 L 461.351562 102.660156 C 462.917969 104.292969 463.878906 106.5 463.878906 108.925781 C 463.878906 111.421875 462.863281 113.6875 461.226562 115.324219 Z M 461.226562 115.324219 " fill-opacity="1" fill-rule="evenodd"/><path fill="#ff0808" d="M 458.179688 105.566406 C 457.320312 104.707031 456.132812 104.175781 454.824219 104.175781 C 453.511719 104.175781 452.324219 104.707031 451.457031 105.566406 C 450.601562 106.417969 450.074219 107.605469 450.074219 108.921875 C 450.074219 110.230469 450.609375 111.421875 451.464844 112.28125 C 452.324219 113.136719 453.511719 113.667969 454.824219 113.667969 C 456.132812 113.667969 457.320312 113.136719 458.179688 112.28125 C 459.039062 111.421875 459.570312 110.230469 459.570312 108.921875 C 459.570312 107.652344 459.078125 106.503906 458.28125 105.660156 Z M 458.179688 105.566406 " fill-opacity="1" fill-rule="evenodd"/><g clip-path="url(#c216e2da66)"><path fill="#ff0101" d="M 152.910156 0.304688 L 70.929688 0.304688 L 1.007812 235.015625 L 13.765625 233.929688 C 15.1875 233.808594 48.769531 230.441406 62.957031 184.507812 C 75.4375 144.089844 85.703125 109.390625 85.804688 109.046875 L 88.359375 100.417969 L 61.425781 93.339844 L 83.941406 17.757812 L 152.910156 17.757812 C 207.707031 17.757812 252.285156 62.339844 252.285156 117.132812 C 252.285156 171.929688 207.707031 216.507812 152.910156 216.507812 L 135.300781 216.507812 L 156.605469 144.996094 L 177.097656 136.753906 C 182.148438 134.722656 185.886719 130.351562 187.109375 125.042969 L 201.78125 61.332031 L 193.71875 58.929688 L 181.441406 104.398438 C 180.824219 106.683594 178.441406 108.011719 176.175781 107.335938 C 173.988281 106.683594 172.71875 104.40625 173.3125 102.203125 L 185.648438 56.523438 L 180.117188 54.878906 L 165.445312 99.859375 C 164.738281 102.03125 162.429688 103.238281 160.242188 102.589844 L 160.042969 102.527344 C 157.855469 101.878906 156.585938 99.601562 157.179688 97.398438 L 169.515625 51.71875 L 163.984375 50.070312 L 149.3125 95.054688 C 148.605469 97.222656 146.296875 98.433594 144.109375 97.78125 C 141.839844 97.105469 140.574219 94.691406 141.308594 92.441406 L 155.914062 47.667969 L 147.855469 45.265625 L 125.265625 106.617188 C 123.382812 111.726562 124.121094 117.4375 127.238281 121.902344 L 139.878906 140.007812 L 111.886719 233.960938 L 152.910156 233.960938 C 217.332031 233.960938 269.738281 181.550781 269.738281 117.132812 C 269.738281 52.714844 217.328125 0.304688 152.910156 0.304688 Z M 152.910156 0.304688 " fill-opacity="1" fill-rule="nonzero"/></g><g fill="#000000" fill-opacity="1"><g transform="translate(497.842117, 150.406509)"><g><path d="M 40.015625 -4.53125 C 38.253906 -2.914062 36.195312 -1.582031 33.84375 -0.53125 C 31.5 0.519531 28.890625 1.046875 26.015625 1.046875 C 24.179688 1.046875 22.109375 0.78125 19.796875 0.25 C 17.484375 -0.269531 15.320312 -1.300781 13.3125 -2.84375 C 11.3125 -4.382812 9.628906 -6.503906 8.265625 -9.203125 C 6.898438 -11.910156 6.21875 -15.441406 6.21875 -19.796875 L 6.21875 -50.4375 L 15.90625 -50.4375 L 15.90625 -19.796875 C 15.90625 -17.617188 16.238281 -15.773438 16.90625 -14.265625 C 17.570312 -12.753906 18.445312 -11.539062 19.53125 -10.625 C 20.625 -9.71875 21.867188 -9.050781 23.265625 -8.625 C 24.671875 -8.207031 26.113281 -8 27.59375 -8 C 28.707031 -8 29.984375 -8.207031 31.421875 -8.625 C 32.867188 -9.050781 34.222656 -9.738281 35.484375 -10.6875 C 36.742188 -11.632812 37.8125 -12.84375 38.6875 -14.3125 C 39.570312 -15.789062 40.015625 -17.582031 40.015625 -19.6875 L 40.015625 -50.4375 L 50.234375 -50.4375 L 50.234375 0 L 42.125 0 Z M 40.015625 -4.53125 "/></g></g></g><g fill="#000000" fill-opacity="1"><g transform="translate(554.169481, 150.406509)"><g><path d="M 33.28125 -0.109375 C 30.394531 0.878906 27.546875 1.476562 24.734375 1.6875 C 21.929688 1.894531 19.40625 1.488281 17.15625 0.46875 C 14.914062 -0.539062 13.09375 -2.328125 11.6875 -4.890625 C 10.28125 -7.453125 9.578125 -11.050781 9.578125 -15.6875 L 9.578125 -41.28125 L 2.21875 -41.28125 L 2.21875 -48.328125 L 9.578125 -50.4375 L 9.578125 -63.921875 L 19.796875 -63.921875 L 19.796875 -50.4375 L 33.484375 -50.4375 L 33.484375 -41.28125 L 19.796875 -41.28125 L 19.796875 -14.109375 C 19.796875 -12.421875 19.988281 -11.085938 20.375 -10.109375 C 20.757812 -9.128906 21.40625 -8.390625 22.3125 -7.890625 C 23.226562 -7.398438 24.421875 -7.15625 25.890625 -7.15625 C 27.367188 -7.15625 29.160156 -7.296875 31.265625 -7.578125 Z M 33.28125 -0.109375 "/></g></g></g></svg>